<?xml version="1.0" encoding="utf-8"?>
<!-- Generator: Adobe Illustrator 26.0.3, SVG Export Plug-In . SVG Version: 6.00 Build 0)  -->
<svg version="1.1" id="Réteg_1" xmlns="http://www.w3.org/2000/svg" xmlns:xlink="http://www.w3.org/1999/xlink" x="0px" y="0px"
	 viewBox="0 0 16 16" style="enable-background:new 0 0 16 16;" xml:space="preserve">
<style type="text/css">
	.st0{fill:#333333;}
	.st1{fill:none;stroke:#FFFFFF;stroke-width:18.5458;stroke-miterlimit:10;}
	.st2{fill:#FFFFFF;}
</style>
<circle class="st0" cx="8" cy="8" r="8"/>
<line class="st1" x1="8.84" y1="10.38" x2="8.84" y2="10.38"/>
<path class="st2" d="M1.72,11.52c0.23,0.3,1,1.1,2.92,2.21s2.93,1.36,3.21,1.4s0.45,0.06,0.19-0.28c-0.25-0.34-1.26-1.22-2.74-2.07
	c-1.46-0.84-2.21-1.28-3.1-1.47c0,0-0.11-0.02-0.1-0.12c0.01-0.04,0.02-0.1,0.18-0.09c0.51,0.04,1.66,0.56,3.12,1.39
	c1.46,0.83,2.46,1.63,2.99,2.31l1.61-2.84c0,0,0.07-0.09-0.01-0.23c-0.09-0.14-0.78-1.06-2.9-2.26C5.12,8.34,4.24,8.1,3.61,8.06
	c0,0-0.12-0.01-0.19,0.1c-0.1,0.17-1.77,3.06-1.77,3.06S1.57,11.33,1.72,11.52z"/>
<path class="st2" d="M10.3,11.56l4.21-6.23c0,0,0.14-0.17-0.05-0.51s-0.72-1.24-3.12-2.69S7.47,0.72,7.21,0.78
	C6.94,0.84,6.95,0.96,6.88,1.11S3.67,7.71,3.67,7.71S4.59,7.84,5.12,8.1c0,0,0.18,0.13,0.3-0.07s2.92-5.25,2.92-5.25
	s0.04-0.07,0.12-0.04c0.01,0.01,0.07,0.05,0.04,0.11C8.4,3.03,5.76,8.13,5.76,8.13S5.62,8.3,5.81,8.4C6,8.49,6.65,8.81,6.86,8.93
	c0.22,0.13,0.31,0.01,0.39-0.11s3.2-5.36,3.2-5.36s0.04-0.06,0.1-0.03c0.02,0.01,0.06,0.04,0.03,0.1c-0.11,0.2-3.03,5.45-3.03,5.45
	S7.42,9.26,7.61,9.37c0.19,0.11,0.78,0.51,0.93,0.6c0.15,0.1,0.28,0.1,0.37-0.03c0.09-0.13,3.19-5,3.19-5s0.04-0.06,0.11-0.03
	c0.02,0.01,0.07,0.06,0.04,0.11c-0.1,0.18-3.04,5.08-3.04,5.08s-0.13,0.26,0.04,0.4S9.99,11.08,10.3,11.56z"/>
</svg>
